<svg width="65" height="57" viewBox="0 0 65 57" fill="none" xmlns="http://www.w3.org/2000/svg">
<path d="M2.03125 36.2197C2.56997 36.2197 3.08663 36.4337 3.46756 36.8147C3.84849 37.1956 4.0625 37.7123 4.0625 38.251V48.4072C4.0625 49.4847 4.49051 50.518 5.25238 51.2799C6.01425 52.0417 7.04756 52.4697 8.125 52.4697H56.875C57.9524 52.4697 58.9858 52.0417 59.7476 51.2799C60.5095 50.518 60.9375 49.4847 60.9375 48.4072V38.251C60.9375 37.7123 61.1515 37.1956 61.5324 36.8147C61.9134 36.4337 62.43 36.2197 62.9688 36.2197C63.5075 36.2197 64.0241 36.4337 64.4051 36.8147C64.786 37.1956 65 37.7123 65 38.251V48.4072C65 50.5621 64.144 52.6287 62.6202 54.1525C61.0965 55.6762 59.0299 56.5322 56.875 56.5322H8.125C5.97012 56.5322 3.90349 55.6762 2.37976 54.1525C0.856024 52.6287 0 50.5621 0 48.4072V38.251C0 37.7123 0.214006 37.1956 0.594939 36.8147C0.975873 36.4337 1.49253 36.2197 2.03125 36.2197Z" fill="#00C199"/>
<path d="M31.0619 0.65535C31.2506 0.466187 31.4747 0.316106 31.7215 0.213705C31.9683 0.111304 32.2328 0.0585938 32.5 0.0585938C32.7672 0.0585937 33.0317 0.111304 33.2785 0.213705C33.5253 0.316106 33.7494 0.466187 33.9381 0.65535L46.1256 12.8428C46.507 13.2243 46.7213 13.7416 46.7213 14.281C46.7213 14.8204 46.507 15.3377 46.1256 15.7191C45.7442 16.1005 45.2269 16.3148 44.6875 16.3148C44.1481 16.3148 43.6308 16.1005 43.2494 15.7191L34.5312 6.99691V42.7185C34.5312 43.2572 34.3172 43.7739 33.9363 44.1548C33.5554 44.5357 33.0387 44.7497 32.5 44.7497C31.9613 44.7497 31.4446 44.5357 31.0637 44.1548C30.6828 43.7739 30.4687 43.2572 30.4687 42.7185V6.99691L21.7506 15.7191C21.5618 15.908 21.3376 16.0578 21.0908 16.16C20.844 16.2622 20.5796 16.3148 20.3125 16.3148C20.0454 16.3148 19.7809 16.2622 19.5342 16.16C19.2874 16.0578 19.0632 15.908 18.8744 15.7191C18.6855 15.5302 18.5357 15.306 18.4335 15.0593C18.3313 14.8125 18.2787 14.5481 18.2787 14.281C18.2787 14.0139 18.3313 13.7494 18.4335 13.5027C18.5357 13.2559 18.6855 13.0317 18.8744 12.8428L31.0619 0.65535Z" fill="#00C199"/>
</svg>
